<?xml version="1.0" encoding="utf-8"?>
<!--
/**
 * Licensed to the Apache Software Foundation (ASF) under one
 * or more contributor license agreements.  See the NOTICE file
 * distributed with this work for additional information
 * regarding copyright ownership.  The ASF licenses this file
 * to you under the Apache License, Version 2.0 (the
 * "License"); you may not use this file except in compliance
 * with the License.  You may obtain a copy of the License at
 *
 *     http://www.apache.org/licenses/LICENSE-2.0
 *
 * Unless required by applicable law or agreed to in writing, software
 * distributed under the License is distributed on an "AS IS" BASIS,
 * WITHOUT WARRANTIES OR CONDITIONS OF ANY KIND, either express or implied.
 * See the License for the specific language governing permissions and
 * limitations under the License.
 */
-->
<!-- Generator: Adobe Illustrator 16.0.0, SVG Export Plug-In . SVG Version: 6.00 Build 0)  -->
<!DOCTYPE svg PUBLIC "-//W3C//DTD SVG 1.1//EN" "http://www.w3.org/Graphics/SVG/1.1/DTD/svg11.dtd">
<svg version="1.1" id="Layer_1" xmlns="http://www.w3.org/2000/svg" xmlns:xlink="http://www.w3.org/1999/xlink" x="0px" y="0px"
	 width="352.906px" height="425.041px" viewBox="0 0 352.906 425.041" enable-background="new 0 0 352.906 425.041"
	 xml:space="preserve">
<g>
	<g>
		<path fill="#6F5243" d="M44.197,383.337v3.872c-5.248-2.983-10.484-4.476-15.71-4.476c-5.607,0-10.273,1.862-13.997,5.586
			c-3.724,3.725-5.586,8.391-5.586,13.997c0,5.607,1.841,10.268,5.522,13.98c3.682,3.714,8.686,5.57,15.012,5.57
			c4.57,0,8.622-0.909,12.156-2.729v-11.965h-9.363v-2.857h12.822v16.98c-5.227,2.497-10.474,3.745-15.742,3.745
			c-6.877,0-12.616-2.179-17.218-6.538c-4.603-4.358-6.903-9.796-6.903-16.313c0-6.475,2.258-11.864,6.776-16.171
			c4.517-4.306,10.193-6.459,17.027-6.459C33.649,379.56,38.716,380.819,44.197,383.337z"/>
		<path fill="#6F5243" d="M83.209,380.132v44.338h-3.428v-44.338H83.209z"/>
		<path fill="#6F5243" d="M119.366,380.132h11.362c4.761,0,8.4,1.031,10.918,3.094c2.518,2.063,3.777,4.852,3.777,8.363
			c0,5.121-2.814,8.718-8.442,10.791c1.46,0.698,3.428,2.951,5.903,6.76l10.029,15.33h-4.058l-7.723-12.151
			c-2.581-4.064-4.59-6.599-6.028-7.604c-1.438-1.006-3.543-1.509-6.314-1.509h-5.997v21.265h-3.428V380.132z M122.793,382.987
			v17.361h7.363c3.745,0,6.606-0.756,8.585-2.27c1.979-1.513,2.968-3.654,2.968-6.427c0-2.729-1.005-4.856-3.015-6.38
			c-2.01-1.523-4.898-2.285-8.665-2.285H122.793z"/>
		<path fill="#6F5243" d="M200.119,379.813l20.498,44.656h-3.596l-7.014-15.33h-21.685l-6.988,15.33h-3.596l20.495-44.656H200.119z
			 M208.699,406.284l-9.553-20.885l-9.521,20.885H208.699z"/>
		<path fill="#6F5243" d="M251.918,380.132h12.219c4.677,0,8.258,1.047,10.744,3.142c2.485,2.095,3.729,4.951,3.729,8.569
			c0,3.661-1.253,6.56-3.761,8.696c-2.507,2.138-6.184,3.206-11.028,3.206h-8.475v20.725h-3.428V380.132z M255.346,382.987v17.9
			h8.252c3.702,0,6.517-0.782,8.442-2.348c1.925-1.566,2.888-3.777,2.888-6.634c0-2.729-0.941-4.898-2.824-6.507
			c-1.884-1.607-4.581-2.412-8.094-2.412H255.346z"/>
		<path fill="#6F5243" d="M347.584,380.132v44.338h-3.46v-21.011h-29.58v21.011h-3.428v-44.338h3.428v20.471h29.58v-20.471H347.584z
			"/>
	</g>
</g>
<g>
	<g>
		<path fill="#6F5243" d="M19.065,341.425l11.038,24.045h-1.937l-3.776-8.254H12.713l-3.763,8.254H7.014l11.037-24.045H19.065z
			 M23.686,355.677l-5.144-11.244l-5.127,11.244H23.686z"/>
		<path fill="#6F5243" d="M76.006,341.595h6.58c2.518,0,4.446,0.564,5.785,1.692s2.008,2.666,2.008,4.614
			c0,1.972-0.675,3.532-2.025,4.683c-1.351,1.151-3.33,1.726-5.939,1.726h-4.563v11.16h-1.846V341.595z M77.852,343.134v9.639h4.443
			c1.994,0,3.509-0.422,4.546-1.266c1.037-0.843,1.555-2.033,1.555-3.571c0-1.47-0.507-2.638-1.521-3.503
			c-1.014-0.866-2.467-1.299-4.358-1.299H77.852z"/>
		<path fill="#6F5243" d="M143.207,341.425l11.038,24.045h-1.937l-3.776-8.254h-11.676l-3.763,8.254h-1.937l11.037-24.045H143.207z
			 M147.828,355.677l-5.144-11.244l-5.127,11.244H147.828z"/>
		<path fill="#6F5243" d="M218.315,343.287v2.017c-2.895-1.538-5.73-2.307-8.512-2.307c-2.961,0-5.439,1.008-7.434,3.024
			s-2.99,4.535-2.99,7.554c0,3.054,1.002,5.565,3.008,7.537c2.006,1.971,4.562,2.956,7.674,2.956c2.598,0,5.428-0.814,8.492-2.444
			v1.914c-2.824,1.493-5.645,2.239-8.459,2.239c-3.635,0-6.662-1.165-9.082-3.495c-2.422-2.329-3.633-5.231-3.633-8.707
			c0-3.497,1.236-6.42,3.709-8.768c2.473-2.347,5.418-3.52,8.836-3.52C212.612,341.288,215.409,341.954,218.315,343.287z"/>
		<path fill="#6F5243" d="M284.812,341.595v23.875h-1.861v-11.313h-15.928v11.313h-1.846v-23.875h1.846v11.023h15.928v-11.023
			H284.812z"/>
		<path fill="#6F5243" d="M346.456,341.595v1.539H335.28v9.553h10.887v1.555H335.28v9.69h11.449v1.538h-13.295v-23.875H346.456z"/>
	</g>
</g>
<path fill-rule="evenodd" clip-rule="evenodd" fill="#6F5243" d="M104.906,2c3.228-1,9.571-2.027,13-2
	c-2.999,6.666-6.001,13.334-9,20c-3.999-1-8.001-2-12-3c0-1,0-2,0-3c-1.55-5.43-1.9-11.14-1.9-11.14S100.422,3.746,104.906,2z"/>
<path fill-rule="evenodd" clip-rule="evenodd" fill="#6F5243" d="M92.906,19c-5.999-0.333-12.001-0.667-18-1
	c-1.667-2.333-3.333-4.667-5-7c4.333-3.333,8.667-2.667,13-6c2.667,0.667,5.333-2.667,8-2C91.573,8.333,92.239,13.667,92.906,19z"/>
<path fill-rule="evenodd" clip-rule="evenodd" fill="#6F5243" d="M134.906,32c-9.415-0.741-16.726-4.905-21-11
	c2.891-7.669,6.94-10.986,8-20c4.333,3.333,8.667,6.667,13,10C134.906,18,134.906,25.001,134.906,32z"/>
<path fill-rule="evenodd" clip-rule="evenodd" fill="#6F5243" d="M251.906,5c-2,6-4,12-6,18c-7.332-3-14.668-6-22-9
	c0-1.667,0-3.333,0-5"/>
<path fill-rule="evenodd" clip-rule="evenodd" fill="#C9B27B" d="M159.906,3c7.666,3,15.334,6,23,9c-3.333,5.333-6.667,10.667-10,16
	c-1.333,0-2.667,0-4,0c-2.333-1.333-4.667-2.667-7-4C161.24,17.001,160.572,10,159.906,3z"/>
<path fill-rule="evenodd" clip-rule="evenodd" fill="#C9B27B" d="M153.906,5c1,0,2,0,3,0c0.273,7.589,0.271,16.282-2,21
	c-6.15,2.874-8.378,7.175-16,9c-0.333-1-0.667-2-1-3c0.667-7.333,1.333-14.667,2-22C144.572,8.334,149.24,6.667,153.906,5z"/>
<path fill-rule="evenodd" clip-rule="evenodd" fill="#6F5243" d="M324.906,6c1.333,0.667,2.667,1.333,4,2
	c1.607,6.341,3.867,14.114,2,21c-7,0.333-14,0.667-21,1c-1.908-5.618-4.975-10.192-4-16C311.986,12.021,320.5,9.858,324.906,6z"/>
<path fill-rule="evenodd" clip-rule="evenodd" fill="#C9B27B" d="M192.906,7c8.999,2,18.001,4,27,6c0.334,0.333,0.666,0.667,1,1
	c-2.666,5-5.334,10-8,15c-6.507,0.599-10.195,1.571-14,0c-3-6-6-12-9-18C190.906,9.667,191.906,8.333,192.906,7z"/>
<path fill-rule="evenodd" clip-rule="evenodd" fill="#6F5243" d="M254.906,10c8.999,1.333,18.001,2.667,27,4
	c-1.492,8.602-17.32,20.876-23,18C246.487,29.199,250.459,19.209,254.906,10z"/>
<path fill-rule="evenodd" clip-rule="evenodd" fill="#6F5243" d="M63.906,13c2.333,2.333,4.667,4.667,7,7c-0.667,5-1.333,10-2,15
	c-4.666,1-9.334,2-14,3c-2.667-3.667-5.333-7.333-8-11c0.667-1,1.333-2,2-3C53.905,20.334,58.907,16.667,63.906,13z"/>
<path fill-rule="evenodd" clip-rule="evenodd" fill="#6F5243" d="M15.906,15c9.503-0.21,13.599-0.701,20,3c1,1.667,2,3.333,3,5
	c-0.667,1-1.333,2-2,3c-2.999,3.333-6.001,6.667-9,10c-4.333-1.333-8.667-2.667-13-4c-1-2.667-2-5.333-3-8
	C13.239,21.001,14.573,18,15.906,15z"/>
<path fill-rule="evenodd" clip-rule="evenodd" fill="#6F5243" d="M186.906,15c3.873,3.438,9.307,12.917,8,18
	c-0.666,1.667-1.334,3.333-2,5c-5.666-0.333-11.334-0.667-17-1C175.127,26.574,181.5,21.853,186.906,15z"/>
<path fill-rule="evenodd" clip-rule="evenodd" fill="#6F5243" d="M285.906,16c5.596,0.878,11.216,1.844,15,4c2,4.666,4,9.334,6,14
	c-4.452,6.663-3.793,9.664-12,13C289.08,40.804,283.363,23.924,285.906,16z"/>
<path fill-rule="evenodd" clip-rule="evenodd" fill="#C9B27B" d="M222.906,18c7.666,3.667,13,9,13,9v7c0,0-9,6-14,5
	c-1.666-3-3.334-6-5-9C218.906,26.001,220.906,22,222.906,18z"/>
<path fill-rule="evenodd" clip-rule="evenodd" fill="#6F5243" d="M95.906,21c7.993,1.038,15.371,3.335,19,9
	c-2.667,3.667-5.333,7.333-8,11c-4.333,0.333-8.667,0.667-13,1c-0.333-0.333-0.667-0.667-1-1C93.906,34.334,94.906,27.667,95.906,21
	z"/>
<path fill-rule="evenodd" clip-rule="evenodd" fill="#6F5243" d="M74.906,23c4.999,0,10.001,0,15,0c-0.333,6.666-0.667,13.334-1,20
	c-0.333,0-0.667,0-1,0c-4.666-2.667-9.334-5.333-14-8C74.239,31.001,74.573,27,74.906,23z"/>
<path fill-rule="evenodd" clip-rule="evenodd" fill="#6F5243" d="M344.906,24c3.873,3.019,6.985,7.788,4,12
	c-3.034,5.057-4.141,11.274-8,9c-5.572-3.009-6.639-9.743-5-17c1-1-1.346-7.665-0.346-8.665
	C336.295,19.335,344.202,24.039,344.906,24z"/>
<path fill-rule="evenodd" clip-rule="evenodd" fill="#6F5243" d="M278.906,25c5.302,5.211,10.373,17.807,12,26
	c-0.334,0.333-0.666,0.667-1,1c-7.584,0.563-15.768,2.45-20-2c-2-3.667-4-7.333-6-11C268.906,34.334,273.906,29.667,278.906,25z"/>
<path fill-rule="evenodd" clip-rule="evenodd" fill="#C9B27B" d="M157.906,27c7.119,1.743,12.209,5.636,15,12c-2,3.333-4,6.667-6,10
	c-8.766-0.596-23.562-2.064-26-10C147.999,36.908,153.91,32.219,157.906,27z"/>
<path fill-rule="evenodd" clip-rule="evenodd" fill="#6F5243" d="M41.906,28c3.667,4.666,7.333,9.334,11,14
	c-0.333,1.333-0.667,2.667-1,4c-2.333,2-4.667,4-7,6c-8.157-2.297-14.091-3.018-15-13C33.905,35.334,37.907,31.667,41.906,28z"/>
<path fill-rule="evenodd" clip-rule="evenodd" fill="#6F5243" d="M118.906,33c5.999,1.667,12.001,3.333,18,5c0,1,0,2,0,3
	c-6.772,5.238-11.018,14.339-20,17c-2-5-4-10-6-15C113.573,39.667,116.239,36.333,118.906,33z"/>
<path fill-rule="evenodd" clip-rule="evenodd" fill="#C9B27B" d="M208.906,33c6.908,1.014,7.562,3.909,10,9c-2,4-4,8-6,12
	c-4,0.667-8,1.333-12,2c-1-5.333-2-10.667-3-16c1.666-1.667,3.334-3.333,5-5C204.906,34.334,206.906,33.667,208.906,33z"/>
<path fill-rule="evenodd" clip-rule="evenodd" fill="#6F5243" d="M241.906,29c0,0,27.074,19.715,22,27c0,0.667,0,1.333,0,2
	c-7.332,0-14.668,0-22,0c-0.334-5-1-20-1-20L241.906,29z"/>
<path fill-rule="evenodd" clip-rule="evenodd" fill="#6F5243" d="M324.906,33c2,0.333,4,0.667,6,1c0.666,3,1.334,6,2,9
	c-5,3.667-10,7.333-15,11c-1.333-0.667-2.667-1.333-4-2c-2.333-1-4.667-2-7-3c0.467-6.68,2.366-11.519,6-15
	C316.906,33.667,320.906,33.334,324.906,33z"/>
<path fill-rule="evenodd" clip-rule="evenodd" fill="#6F5243" d="M11.906,37c4.666,1.333,9.334,2.667,14,4c0,3,0,6,0,9
	c-3.333,3.667-6.667,7.333-10,11c-3.999-2.667-8.001-5.333-12-8C6.573,47.667,9.239,42.333,11.906,37z"/>
<path fill-rule="evenodd" clip-rule="evenodd" fill="#6F5243" d="M64.906,40c10.474-0.261,15.362,2.642,20,8
	c-1.667,4.333-3.333,8.667-5,13c-1.333,0.667-2.667,1.333-4,2c-7.751-3.586-13.276-10.448-18-17c1.321-3.827-0.001-2.08,3-4
	C62.239,41.334,63.573,40.667,64.906,40z"/>
<path fill-rule="evenodd" clip-rule="evenodd" fill="#6F5243" d="M175.906,42c6,0.333,12,0.667,18,1c1.693,9.536,4.07,13.695-1,21
	c-4.666,0.667-9.334,1.333-14,2c-0.666-0.667-1.334-1.333-2-2c-1.666-4-3.334-8-5-12C173.239,48.667,174.573,45.333,175.906,42z"/>
<path fill-rule="evenodd" clip-rule="evenodd" fill="#6F5243" d="M94.906,45c4.333,0.667,8.667,1.333,13,2
	c2.036,5.478,5.454,8.735,5,14c-4.666,1.667-9.334,3.333-14,5c-3.999-3-8.001-6-12-9c1.333-3.667,2.667-7.333,4-11
	C92.239,45.667,93.573,45.334,94.906,45z"/>
<path fill-rule="evenodd" clip-rule="evenodd" fill="#6F5243" d="M223.906,45c4,0.667,12-5,12-5s1.334,18.334,2,24c-2,2-4,4-6,6
	c-0.334,0-0.666,0-1,0c-4.666-4.333-9.334-8.667-14-13C219.239,53.001,221.573,49,223.906,45z"/>
<path fill-rule="evenodd" clip-rule="evenodd" fill="#6F5243" d="M138.906,46c1.333,1,2.667,2,4,3c0.353,10.293,1.437,17.578-2,24
	c-3.667,0.333-7.333,0.667-11,1c-2.999-4.333-6.001-8.667-9-13c0.667,0,1.333,0,2,0C128.239,56.001,133.573,51,138.906,46z"/>
<path fill-rule="evenodd" clip-rule="evenodd" fill="#6F5243" d="M332.906,48c2.666,1,5.334,2,8,3c-0.584,5.217,4.424,13.778,1,18
	c-3.666,2.333-10.334,8.667-14,11c-4-2.333-5-4.667-9-7c-0.165-6.112-0.826-12.113,1-17C324.239,53.334,328.573,50.667,332.906,48z"
	/>
<path fill-rule="evenodd" clip-rule="evenodd" fill="#6F5243" d="M299.906,49c4.666,3,9.334,6,14,9c0.334,3.333,0.666,10.667,1,14
	c-6.666,3-13.334,2-20,5c-0.666-7.999-1.334-16.001-2-24c0.666-0.667,1.334-1.333,2-2C296.572,50.334,298.24,49.667,299.906,49z"/>
<path fill-rule="evenodd" clip-rule="evenodd" fill="#6F5243" d="M52.906,50c6.421,2.055,11.426,10.038,15,15c-0.667,0-1.333,0-2,0
	c-5.853,8.738-13.937,8.895-21,1C45.869,57.124,48.024,54.555,52.906,50z"/>
<path fill-rule="evenodd" clip-rule="evenodd" fill="#C9B27B" d="M146.906,50c7.333,1.333,14.668,2.667,22,4c1.333,4,2.667,8,4,12
	c-6.941,2.501-9.584,6.623-18,8c-2.667-1-5.333-2-8-3C146.906,64.001,146.906,57,146.906,50z"/>
<path fill-rule="evenodd" clip-rule="evenodd" fill="#6F5243" d="M28.906,53c4.333,0.667,8.667,1.333,13,2c0,1.667,0,3.333,0,5
	c-1.188,4.321-2.135,7.969-4,11c-2.333,1.333-4.667,2.667-7,4c-3.999-3-8.001-6-12-9C22.239,61.667,25.573,57.333,28.906,53z"/>
<path fill-rule="evenodd" clip-rule="evenodd" fill="#6F5243" d="M269.906,56c6.332,0.333,12.668,0.667,19,1
	c1.178,7.938,1.151,12.471,1,22c-9.181,3.107-11.863,3.038-22,1C266.522,71.199,267.293,62.375,269.906,56z"/>
<path fill-rule="evenodd" clip-rule="evenodd" fill="#C9B27B" d="M206.906,60c4.537,0.056,5.746,0.198,8,2
	c3.333,2.667,6.667,5.333,10,8c-0.334,0.667-0.666,1.333-1,2c-4.666,3-9.334,6-14,9c-0.666-0.333-1.334-0.667-2-1
	c-2.047-6.461-6.213-10.38-11-14c1.333-1.667,2.667-3.333,4-5C202.906,60.667,204.906,60.334,206.906,60z"/>
<path fill-rule="evenodd" clip-rule="evenodd" fill="#C9B27B" d="M84.906,62c5.333,3.333,10.667,6.667,16,10
	c0.188,6.204,0.765,8.767-1,14c-6.333,1.333-12.667,2.667-19,4c-0.801-10.171-3.007-18.057,1-26
	C82.906,63.334,83.906,62.667,84.906,62z"/>
<path fill-rule="evenodd" clip-rule="evenodd" fill="#6F5243" d="M253.906,62c3,0.333,6,0.667,9,1c-0.372,8.51,1.299,15.269-2,21
	c-3.666,2-7.334,4-11,6c-7.251-3.756-11.086-11.179-14-19c4.092-1.895,5.312-3.76,7-8C246.572,62.667,250.24,62.334,253.906,62z"/>
<path fill-rule="evenodd" clip-rule="evenodd" fill="#C9B27B" d="M115.906,63c5.491,3.344,8.976,9.198,12,15
	c-3.698,6.532-12.769,9.263-22,10c-0.333-0.333-0.667-0.667-1-1c-0.263-6.892-0.009-13.862,2-18C109.905,67,112.907,65,115.906,63z"
	/>
<path fill-rule="evenodd" clip-rule="evenodd" fill="#C9B27B" d="M76.906,91c-12.462,0.363-17.097-2.348-20-12
	C72.538,61.701,77.888,67.697,76.906,91z"/>
<path fill-rule="evenodd" clip-rule="evenodd" fill="#C9B27B" d="M185.906,91c-1.333-7-2.667-14-4-21c3.666-0.667,7.334-1.333,11-2
	c6.531,4.662,12.115,10.642,13,21C199.24,89.667,192.572,90.334,185.906,91z"/>
<path fill-rule="evenodd" clip-rule="evenodd" fill="#C9B27B" d="M160.906,97c-0.666-6.333-1.334-12.667-2-19
	c7.071-1.861,11.951-5.294,17-9c0.666,0.333,1.334,0.667,2,1c0.926,10.732,4.136,16.685,3,26
	C174.24,96.334,167.572,96.667,160.906,97z"/>
<path fill-rule="evenodd" clip-rule="evenodd" fill="#6F5243" d="M17.906,72c3.333,2,6.667,4,10,6c0.667,4.666,1.333,9.334,2,14
	c-6.333,3-12.667,6-19,9c-2.749-4.823-5.07-6.882-6-14C9.239,82.001,13.573,77,17.906,72z"/>
<path fill-rule="evenodd" clip-rule="evenodd" fill="#C9B27B" d="M41.906,72c5.577,0.896,8.148,2.529,11,6
	c-1.567,8.572-4.454,12.226-14,18c-2-1.333-4-2.667-6-4c0-4.333,0-8.667,0-13C35.905,76.667,38.907,74.333,41.906,72z"/>
<path fill-rule="evenodd" clip-rule="evenodd" fill="#6F5243" d="M344.906,72c6.031,1.782,2.879,6.462,6,11
	c-0.137,15.426-5.163,16.005-16,20c-1.333-2.667-2.667-5.333-4-8c1.333-5.666,2.667-11.334,4-17
	C339.714,76.744,342.215,75.253,344.906,72z"/>
<path fill-rule="evenodd" clip-rule="evenodd" fill="#C9B27B" d="M229.906,73c4.938,3.471,8.041,9.646,10,16
	c-9.049,2.371-17.592,5.924-23,12c-0.666-0.333-1.334-0.667-2-1c-2.09-5.858-4.033-6.831-4-13
	C217.238,82.334,223.574,77.667,229.906,73z"/>
<path fill-rule="evenodd" clip-rule="evenodd" fill="#C9B27B" d="M314.906,77c4.666,2.667,9.334,5.333,14,8c-0.666,4-1.334,4-2,8
	c-6.332,0.333-12.668,0.667-19,1c-3.333-4.666-6.667-9.334-10-14C303.572,77.667,309.24,79.333,314.906,77z"/>
<path fill-rule="evenodd" clip-rule="evenodd" fill="#C9B27B" d="M143.906,75c3.667,1,7.333,2,11,3c0.667,7.333,1.333,14.667,2,22
	c-6.666,0.333-13.334,0.667-20,1c-2-6.666-4-13.334-6-20C135.239,79,139.573,77,143.906,75z"/>
<path fill-rule="evenodd" clip-rule="evenodd" fill="#C9B27B" d="M291.906,82c4.685,2.84,7.267,7.206,10,12c-2,7.333-4,14.667-6,22
	c-1.666,0.667-3.334,1.333-5,2c-3.333-2-6.667-4-10-6c0.334-8.666,0.666-17.334,1-26C287.031,85.56,289.234,84.668,291.906,82z"/>
<path fill-rule="evenodd" clip-rule="evenodd" fill="#C9B27B" d="M277.906,112c-10.246-0.665-20.938-8.722-25-16
	c0.334-1.333,0.666-2.667,1-4c9.146-3.23,13.896-12.266,23-3C277.24,96.667,277.572,104.334,277.906,112z"/>
<path fill-rule="evenodd" clip-rule="evenodd" fill="#C9B27B" d="M126.906,86c3.562,4.585,5.294,11.584,6,19c-2,2-4,4-6,6
	c-0.667-0.667-1.333-1.333-2-2c-4.666-2.667-9.334-5.333-14-8c-0.333-3-0.667-6-1-9C116.655,90.866,122.602,89.472,126.906,86z"/>
<path fill-rule="evenodd" clip-rule="evenodd" fill="#C9B27B" d="M54.906,90c4.666,1.667,9.334,3.333,14,5c-0.333,1-0.667,2-1,3
	c-2.999,4.333-6.001,8.667-9,13c-3.999,0-8.001,0-12,0c-1.333-4-2.667-8-4-12C46.905,96.001,50.907,93,54.906,90z"/>
<path fill-rule="evenodd" clip-rule="evenodd" fill="#C9B27B" d="M95.906,90c2.999,0.667,6.001,1.333,9,2c0.667,3,1.333,6,2,9
	c-4.106,4.157-6.652,10.101-12,13c-1,0.333-2,0.667-3,1c-0.667-0.667-1.333-1.333-2-2c-2-6.333-4-12.667-6-19
	C87.905,92.667,91.907,91.333,95.906,90z"/>
<path fill-rule="evenodd" clip-rule="evenodd" fill="#C9B27B" d="M241.906,92c2.333,0.667,4.667,1.333,7,2
	c-3.333,8.666-6.667,17.334-10,26c-2.256,2.613-5.292,2.836-9,4c-6.539-3.684-11.143-10.627-14-18c0.334-0.333,0.666-0.667,1-1
	C223.988,102.568,235.195,96.64,241.906,92z"/>
<path fill-rule="evenodd" clip-rule="evenodd" fill="#C9B27B" d="M204.906,93c4.818,2.654,6.865,7.657,7,15c-0.666,0-1.334,0-2,0
	c-6.332,2.333-12.668,4.667-19,7c-0.666-1-1.334-2-2-3c-1.666-5-3.334-10-5-15c1-0.667,2-1.333,3-2
	C191.492,96.269,199.646,96.088,204.906,93z"/>
<path fill-rule="evenodd" clip-rule="evenodd" fill="#C9B27B" d="M74.906,95c1,0,2,0,3,0c4.214,3.732,10.113,16.279,5,20
	c-7.688,3.867-11.919-0.323-18-3C66.334,104.916,70.729,99.474,74.906,95z"/>
<path fill-rule="evenodd" clip-rule="evenodd" fill="#6F5243" d="M29.906,96c2.999,1.667,6.001,3.333,9,5
	c1.667,4.666,3.333,9.334,5,14c-15.071,5.065-27.595,8.02-35-3c1-2.333,2-4.667,3-7C19.054,103.82,26.044,100.619,29.906,96z"/>
<path fill-rule="evenodd" clip-rule="evenodd" fill="#C9B27B" d="M306.906,97c4.889,0.559,16.111,0.469,22,1
	c0.666,1.667,1.334,5.333,2,7c-2,3.333-4,1.667-6,5c-7.332,0.333-14.668,5.667-22,6c-0.666-0.333-1.334-0.667-2-1
	C301.222,107.328,303.563,101.642,306.906,97z"/>
<path fill-rule="evenodd" clip-rule="evenodd" fill="#C9B27B" d="M161.906,102c6.774-0.612,15.561-3.067,19,2c2,4.333,4,8.667,6,13
	c-0.666,1-1.334,2-2,3c-8.283,10.488-18.439-2.596-23-8C161.906,108.667,161.906,105.333,161.906,102z"/>
<path fill-rule="evenodd" clip-rule="evenodd" fill="#C9B27B" d="M250.906,102c5.333,4,10.667,8,16,12c-0.334,1-0.666,2-1,3
	c-3.666,3.667-7.334,7.333-11,11c-3.666-2-7.334-4-11-6C245.067,113.584,248.255,108.417,250.906,102z"/>
<path fill-rule="evenodd" clip-rule="evenodd" fill="#C9B27B" d="M145.906,104c3.999,0,8.001,0,12,0c0,3.667,0,7.333,0,11
	c-4.333,4.333-8.667,8.667-13,13c-4.666-3.333-9.334-6.667-14-10c0-1.333,0-2.667,0-4c2.333-2.667,4.667-5.333,7-8
	C140.573,105.334,143.239,104.667,145.906,104z"/>
<path fill-rule="evenodd" clip-rule="evenodd" fill="#C9B27B" d="M107.906,105c7.854,1.357,18.458,6.927,19,16c-1,1.333-2,2.667-3,4
	c-9.788-0.039-17.288,2.201-24,1c-1-2.333-2-4.667-3-7C100.573,114.334,104.239,109.667,107.906,105z"/>
<path fill-rule="evenodd" clip-rule="evenodd" fill="#6F5243" d="M332.906,111c5,3.667,10,7.333,15,11c0.334,4.666,0.666,9.334,1,14
	c-2.333,1.333-4.667,2.667-7,4c-4.666-2.667-9.334-5.333-14-8C327.133,120.142,329.602,119.247,332.906,111z"/>
<path fill-rule="evenodd" clip-rule="evenodd" fill="#C9B27B" d="M209.906,113c1,0,2,0,3,0c2.666,2.667,5.334,5.333,8,8
	c-1,1.333-2,2.667-3,4c-5.666,4.666-11.334,9.334-17,14c-5.844-3.878-8.755-9.541-12-16C193.372,116.233,202.886,117.04,209.906,113
	z"/>
<path fill-rule="evenodd" clip-rule="evenodd" fill="#6F5243" d="M58.906,114c3.333,2,6.667,4,10,6c-0.333,5-0.667,10-1,15
	c-9.286,1.135-11.666,2.404-18-2c-1.179-7.419-3.907-11.636-1-18C52.239,114.667,55.573,114.334,58.906,114z"/>
<path fill-rule="evenodd" clip-rule="evenodd" fill="#C9B27B" d="M271.906,116c8.14,0.049,10.365,2.047,16,4
	c-0.666,1.333-1.334,2.667-2,4c-4.666,5.666-9.334,11.334-14,17c-3.666,0-7.334,0-11,0c-0.666-3.333-1.334-6.667-2-10
	C263.239,126.001,267.573,121,271.906,116z"/>
<path fill-rule="evenodd" clip-rule="evenodd" fill="#6F5243" d="M8.906,118c3.333,3.333,2.667,6.667,6,10c1,5.666,2,11.334,3,17
	c-6.333,1.333-7.667,2.667-14,4C-3.282,125.413,0.071,136.569,8.906,118z"/>
<path fill-rule="evenodd" clip-rule="evenodd" fill="#6F5243" d="M86.906,118c2.333,1,4.667,2,7,3c1,3.667,2,7.333,3,11
	c-5.333,2.333-10.667,4.667-16,7c-2.667-1-5.333-2-8-3c-0.209-7.175,0.745-10.918,3-15C79.573,120,83.239,119,86.906,118z"/>
<path fill-rule="evenodd" clip-rule="evenodd" fill="#D06023" d="M160.906,118c4.051,3.489,5.299,6.827,11,9c-1,4.666-2,9.334-3,14
	c-0.666,0.333-1.334,0.667-2,1c-6.332-3-12.667-6-19-9C152.239,128.001,156.573,123,160.906,118z"/>
<path fill-rule="evenodd" clip-rule="evenodd" fill="#6F5243" d="M40.906,119c2.575,2.719,5.908,12.149,3,14
	c-6.666,4-13.334,8-20,12c-0.667-0.334-1.333-0.666-2-1c-0.667-6.333-1.333-12.667-2-19C26.905,123,33.907,121,40.906,119z"/>
<path fill-rule="evenodd" clip-rule="evenodd" fill="#6F5243" d="M296.906,119c9,3.827,19.334-3.667,28-3
	c-0.221,3.882-1.15,13.899-3,18c-3.795,2.365-5.775,5.848-10,5c-4.888,0.741-7.186-0.492-11-3c-2.333-5.333-4.667-10.667-7-16
	C294.906,119.667,295.906,119.334,296.906,119z"/>
<path fill-rule="evenodd" clip-rule="evenodd" fill="#C9B27B" d="M129.906,123c4.999,3.667,10.001,7.333,15,11
	c-2.29,6.45-8.565,16.772-14,14c-1.667-0.666-3.333-1.334-5-2c0-6,0-12,0-18C127.239,126.334,128.573,124.667,129.906,123z"/>
<path fill-rule="evenodd" clip-rule="evenodd" fill="#C9B27B" d="M183.906,126c4.666,5.666,9.334,11.334,14,17c0,1,0,2,0,3
	c-2.666,2.333-5.334,4.667-8,7c-16.936-1.643-17.521-10.823-14-25C178.572,127.334,181.24,126.667,183.906,126z"/>
<path fill-rule="evenodd" clip-rule="evenodd" fill="#C9B27B" d="M222.906,126c1,0.333,2,0.667,3,1c0.666,9.333,1.334,18.668,2,28
	c-1.666,0.666-3.334,1.334-5,2c-7.841-4.17-14.37-6.856-20-13c0.666-0.333,1.334-0.667,2-1
	C208.584,135.249,216.928,131.488,222.906,126z"/>
<path fill-rule="evenodd" clip-rule="evenodd" fill="#C9B27B" d="M236.906,126c7.949,2.37,13.355,4.734,19,9c0,5,0,10,0,15
	c-6.332,2-12.668,4-19,6c-1.333-1.333-2.667-2.667-4-4c-3.291-5.971-1.234-16.627-2-24C232.906,127.334,234.906,126.667,236.906,126
	z"/>
<path fill-rule="evenodd" clip-rule="evenodd" fill="#6F5243" d="M289.906,126c4.52,3.125,8.914,10.583,10,17
	c-3.333,5-6.667,10-10,15c-0.334,0-0.666,0-1,0c-3.666-4.666-7.334-9.334-11-14C281.906,138.001,285.906,132,289.906,126z"/>
<path fill-rule="evenodd" clip-rule="evenodd" fill="#C9B27B" d="M120.906,130c0,5,0,10,0,15c-4.666,0.666-9.334,1.334-14,2
	c-2-5-4-10-6-15C107.572,131.334,114.24,130.667,120.906,130z"/>
<path fill-rule="evenodd" clip-rule="evenodd" fill="#6F5243" d="M324.906,136c5,3,10,6,15,9c-1.02,4.324-1.219,10.333-4,13
	c-1.666,1.666-3.334,3.334-5,5c-0.666-0.666-1.334-1.334-2-2c-7.745-2.946-8.229-10.482-11-18
	C320.239,140.667,322.573,138.333,324.906,136z"/>
<path fill-rule="evenodd" clip-rule="evenodd" fill="#6F5243" d="M45.906,137c4.069,1.061,4.017,1.053,6,4c1,5.333,2,10.667,3,16
	c-0.333,0.666-0.667,1.334-1,2c-8.062-1.681-20.361,2.711-25-4c-0.667-2.333-1.333-4.667-2-7
	C33.239,144.334,39.573,140.667,45.906,137z"/>
<path fill-rule="evenodd" clip-rule="evenodd" fill="#6F5243" d="M95.906,137c2.667,4,5.333,8,8,12c-1.333,4.666-2.667,9.334-4,14
	c-0.667,0.334-1.333,0.666-2,1c-4.999-2.666-10.001-5.334-15-8c0-4.333,0-8.667,0-13C87.239,141,91.573,139,95.906,137z"/>
<path fill-rule="evenodd" clip-rule="evenodd" fill="#6F5243" d="M78.906,156c-6.666,1.333-13.334,2.667-20,4
	c-0.667-6.332-1.333-12.668-2-19c8.896-1.496,22.489-4.656,21,6C78.239,150,78.573,153,78.906,156z"/>
<path fill-rule="evenodd" clip-rule="evenodd" fill="#C9B27B" d="M146.906,139c7.316,0.517,10.884,3.368,15,7c-2.333,4-4.667,8-7,12
	c-7.708,0.344-13.103,1.254-18-1c0-0.334,0-0.666,0-1c0-1,0-2,0-3C141.644,149.372,144.177,144.654,146.906,139z"/>
<path fill-rule="evenodd" clip-rule="evenodd" fill="#6F5243" d="M303.906,143c3.333,0,6.667,0,10,0c1.333,5.333,2.667,10.667,4,16
	c-6.666,2.333-13.334,4.667-20,7c-1.333-0.666-2.667-1.334-4-2C295.109,154.985,300.257,149.959,303.906,143z"/>
<path fill-rule="evenodd" clip-rule="evenodd" fill="#C9B27B" d="M165.906,146c1,0,2,0,3,0c4.333,3.333,8.667,6.667,13,10
	c-4.333,5.666-8.667,11.334-13,17c-1-0.666-2-1.334-3-2c-2-3.666-4-7.334-6-11C161.906,155.334,163.906,150.667,165.906,146z"/>
<path fill-rule="evenodd" clip-rule="evenodd" fill="#6F5243" d="M261.906,146c3.666,0.334,7.334,0.666,11,1
	c6.778,3.119,11.229,9.859,15,16c0,0.334,0,0.666,0,1c-0.666,0-1.334,0-2,0c-7,1-14,2-21,3c-2-4.666-4-9.334-6-14
	C259.906,150.667,260.906,148.333,261.906,146z"/>
<path fill-rule="evenodd" clip-rule="evenodd" fill="#6F5243" d="M17.906,148c3.006,1.284,2.245,0.629,4,3
	c3.978,7.174,2.962,14.324,1,23c-1,1.666-2,3.334-3,5c-6.333-1.666-7.667-3.334-14-5c-0.333-6.666-0.667-13.334-1-20
	C10.905,152,11.907,150,17.906,148z"/>
<path fill-rule="evenodd" clip-rule="evenodd" fill="#C9B27B" d="M118.906,148c2,0.334,4,0.666,6,1c2.333,2.333,4.667,4.667,7,7
	c0,0.666,0,1.334,0,2c-5.333,3.666-10.667,7.334-16,11c-4.333-2-8.667-4-13-6c1.333-3.333,2.667-6.667,4-10
	C110.905,151.334,114.907,149.667,118.906,148z"/>
<path fill-rule="evenodd" clip-rule="evenodd" fill="#C9B27B" d="M199.906,150c5.666,3.666,11.334,7.334,17,11
	c-3.333,6.332-6.667,12.668-10,19c-0.334,0-0.666,0-1,0c-7.332-4.024-9.943-15.93-13-24C195.239,154,197.573,152,199.906,150z"/>
<path fill-rule="evenodd" clip-rule="evenodd" fill="#C9B27B" d="M253.906,155c7.141,6.947,6.541,15.806,5,27c-2,0-4,0-6,0
	c-4,0-8,0-12,0c-1-7.666-2-15.334-3-23C244.799,159.075,250.042,157.896,253.906,155z"/>
<path fill-rule="evenodd" clip-rule="evenodd" fill="#C9B27B" d="M186.906,157c4.893,3.181,8.182,14.094,9,21
	c-6,1.666-12,3.334-18,5c-2.333-2-4.667-4-7-6C176.239,170.334,181.573,163.667,186.906,157z"/>
<path fill-rule="evenodd" clip-rule="evenodd" fill="#C9B27B" d="M230.906,157c7.131,6.322,6.948,26.199,3,32
	c-0.666,0.334-1.334,0.666-2,1c-5.666-0.666-11.334-1.334-17-2c-2-1.666-4-3.334-6-5C215.35,172.473,221.246,164.415,230.906,157z"
	/>
<path fill-rule="evenodd" clip-rule="evenodd" fill="#6F5243" d="M75.906,160c7.484,0.515,12.265,3.764,16,8c-1.333,3-2.667,6-4,9
	c-9.708,2.824-19.79,4.712-27,4c-0.333-5.333-0.667-10.667-1-16C65.239,163.334,70.573,161.667,75.906,160z"/>
<path fill-rule="evenodd" clip-rule="evenodd" fill="#C9B27B" d="M150.906,161c2.333,0.666,4.667,1.334,7,2c2,5,4,10,6,15
	c-3,1-6.001,2-9,3c-3.999-2-8.001-4-12-6c-0.667-4-1.333-8-2-12c0.667,0,1.333,0,2,0C145.573,162.334,148.239,161.667,150.906,161z"
	/>
<path fill-rule="evenodd" clip-rule="evenodd" fill="#6F5243" d="M340.906,161c7.361,0.807,7.735,2.963,12,7c-2,5-4,10-6,15
	c-8.164,0.52-13.666,0.614-13-6c0-3.666,0-7.334,0-11C336.239,164.334,338.573,162.667,340.906,161z"/>
<path fill-rule="evenodd" clip-rule="evenodd" fill="#6F5243" d="M28.906,162c8.999,0.666,18.001,1.334,27,2
	c0.333,5.333,0.667,10.667,1,16c-2,1-4,2-6,3c-7.999-2.666-16.001-5.334-24-8C27.573,170.667,28.239,166.333,28.906,162z"/>
<path fill-rule="evenodd" clip-rule="evenodd" fill="#C9B27B" d="M131.906,162c1.333,0,2.667,0,4,0c0.667,5.333,1.333,10.667,2,16
	c-6.042,4.745-8.353,4.459-18,2c-0.667-2-1.333-4-2-6C122.572,170,127.24,166,131.906,162z"/>
<path fill-rule="evenodd" clip-rule="evenodd" fill="#6F5243" d="M319.906,162c3.333,2,6.667,4,10,6c-0.152,4.58-0.467,13.404-3,16
	c-4.333,0.334-8.667,0.666-13,1c-3-5-6-10-9-15C309.906,167.334,314.906,164.667,319.906,162z"/>
<path fill-rule="evenodd" clip-rule="evenodd" fill="#C9B27B" d="M97.906,168c5.947,0.702,12.443,3.626,16,7
	c0.667,1.666,1.333,3.334,2,5c-2,5.333-4,10.667-6,16c-4.666-0.334-9.334-0.666-14-1c-1.667-4.333-3.333-8.667-5-13
	C93.239,177.334,95.573,172.667,97.906,168z"/>
<path fill-rule="evenodd" clip-rule="evenodd" fill="#6F5243" d="M286.906,168c1,0,2,0,3,0c-2.333,7.666-5.667,16.334-8,24
	c-7.062-0.007-15.059-1.44-18-6c0.334-4.333,0.666-8.667,1-13C272.238,171.334,279.574,169.667,286.906,168z"/>
<path fill-rule="evenodd" clip-rule="evenodd" fill="#6F5243" d="M294.906,169c7.148,3.537,9.562,9.926,15,15
	c-0.644,3.635-0.403,3.027-2,5c-0.666,1.333-1.334,2.667-2,4c-6.332-0.334-12.668-0.666-19-1
	C289.572,184.334,292.24,176.667,294.906,169z"/>
<path fill-rule="evenodd" clip-rule="evenodd" fill="#6F5243" d="M22.906,179c7.263,0.517,18.471,4.896,23,9c-2,4.333-4,8.667-6,13
	c-2.999,0-6.001,0-9,0c-2.999-3.333-6.001-6.667-9-10C22.239,187,22.573,183,22.906,179z"/>
<path fill-rule="evenodd" clip-rule="evenodd" fill="#C9B27B" d="M139.906,181c3.999,1,8.001,2,12,3c0.333,0.334,0.667,0.666,1,1
	c-1.333,6.332-2.667,12.668-4,19c-0.333,0-0.667,0-1,0c-2.999-1-6.001-2-9-3c-1-5.333-2-10.667-3-16
	C137.239,183.667,138.573,182.333,139.906,181z"/>
<path fill-rule="evenodd" clip-rule="evenodd" fill="#C9B27B" d="M165.906,181c5.518,2.037,8.688,4.75,12,9
	c-0.666,2.333-1.334,4.667-2,7c-6.332,3.666-12.668,7.334-19,11c-1-0.666-2-1.334-3-2c0-0.334,0-0.666,0-1c1.667-7,3.333-14,5-21
	C162.056,183.265,163.955,182.686,165.906,181z"/>
<path fill-rule="evenodd" clip-rule="evenodd" fill="#C9B27B" d="M196.906,181c6.934,0.861,9.021,3.391,12,8
	c-2.803,4.868-6.098,14.057-11,17c-5.007,2.358-6.145,1.542-9-2c-2.666-2-5.334-4-8-6c0.217-4.377-0.49-8.455,2-11
	C187.572,185,192.24,183,196.906,181z"/>
<path fill-rule="evenodd" clip-rule="evenodd" fill="#6F5243" d="M78.906,182c2.333,0,4.667,0,7,0c2.547,5.043,5.983,11.439,5,17
	c-6.999,2-14.001,4-21,6c-2-6.666-4-13.334-6-20C69.493,186.629,74.923,184.801,78.906,182z"/>
<path fill-rule="evenodd" clip-rule="evenodd" fill="#6F5243" d="M57.906,184c5.034,5.539,8.044,15.695,9,25c-2,0-4,0-6,0
	c-5.255,2.098-8,1.881-11-1c-2-1.666-4-3.334-6-5C45.71,192.479,50.747,189.103,57.906,184z"/>
<path fill-rule="evenodd" clip-rule="evenodd" fill="#C9B27B" d="M119.906,184c4.333,1,8.667,2,13,3c0.43,6.675,1.968,13.519,0,16
	c-2.667,1.666-5.333,3.334-8,5c-3.667-3.333-7.333-6.667-11-10C115.906,193.334,117.906,188.667,119.906,184z"/>
<path fill-rule="evenodd" clip-rule="evenodd" fill="#6F5243" d="M330.906,187c10.224-0.313,10.314-1.316,17,2
	c3.891,10.879,6.519,10.409,0,19c-0.334,0-0.666,0-1,0c-6-1.333-5-2.667-11-4C334.24,198.334,332.572,192.667,330.906,187z"/>
<path fill-rule="evenodd" clip-rule="evenodd" fill="#C9B27B" d="M255.906,187c4.962,1.011,3.748,0.7,6,4
	c-1.666,8.666-3.334,17.334-5,26c-6.992-0.986-11.84-5.443-19-9c-1.014-6.16-4.107-12.091-2-15
	C241.63,186.961,248.446,190.027,255.906,187z"/>
<path fill-rule="evenodd" clip-rule="evenodd" fill="#6F5243" d="M313.906,189c4.333,0.334,8.667,0.666,13,1
	c1.18,6.307,4.966,9.107,3,15c-2.666,3.666-5.334,7.334-8,11c-6.219-1.279-7.948-3.904-12-7c-0.666-4.666-1.334-9.334-2-14
	C309.906,193,311.906,191,313.906,189z"/>
<path fill-rule="evenodd" clip-rule="evenodd" fill="#C9B27B" d="M212.906,192c3.666,0.334,7.334,0.666,11,1
	c19.378,11.536,2.734,21.018-6,31c-1-0.666-2-1.334-3-2c-3.333-5-6.667-10-10-15C207.572,202,210.24,197,212.906,192z"/>
<path fill-rule="evenodd" clip-rule="evenodd" fill="#C9B27B" d="M280.906,218.001c-8.281,0.816-11.536,2.191-17-1
	c-2.066-1.963-1.035-0.375-2-4c1.333-6.667,2.667-13.334,4-20c4.758,2.874,7.17,7.267,9.146,9
	C277.053,208.867,280.572,211.669,280.906,218.001z"/>
<path fill-rule="evenodd" clip-rule="evenodd" fill="#6F5243" d="M17.906,195c3.333,3,6.667,6,10,9c-0.467,6.68-2.366,11.52-6,15
	c-2.999,0-6.001,0-9,0c-1.667-4-3.333-8-5-12C11.239,203,14.573,199,17.906,195z"/>
<path fill-rule="evenodd" clip-rule="evenodd" fill="#6F5243" d="M277.906,196c6.911-0.387,23.244-0.097,26,4c0.666,3,1.334,6,2,9
	c-1,0.666-2,1.334-3,2c-4.465,3.564-13.39,4.996-18,3C284.572,208.334,278.24,201.667,277.906,196z"/>
<path fill-rule="evenodd" clip-rule="evenodd" fill="#C9B27B" d="M97.906,199c12.161,2.003,18.339,5.025,25,14
	c-6.666,2.666-13.334,5.334-20,8c-0.667-0.334-1.333-0.666-2-1C99.906,213.001,98.906,206,97.906,199z"/>
<path fill-rule="evenodd" clip-rule="evenodd" fill="#C9B27B" d="M175.906,202c4,2.333,8,4.667,12,7
	c-1.668,8.909-6.296,14.167-10,21c-1-0.666-2-1.334-3-2c-3.66-6.811-11.727-7.918-17-13
	C162.202,207.981,168.991,206.359,175.906,202z"/>
<path fill-rule="evenodd" clip-rule="evenodd" fill="#C9B27B" d="M90.906,203c3.438,3.029,5.11,11.797,6,17c-5.666,2-11.334,4-17,6
	c-1.667-1.666-3.333-3.334-5-5c-1.333-3.666-2.667-7.334-4-11C77.572,207.667,84.24,205.333,90.906,203z"/>
<path fill-rule="evenodd" clip-rule="evenodd" fill="#6F5243" d="M34.906,205c2,0,4,0,6,0c2.667,2.666,5.333,5.334,8,8
	c-0.667,1-1.333,2-2,3c-2,4.332-4,8.666-6,13c-4.333-3.334-8.667-6.668-13-10C30.239,214.335,32.573,209.667,34.906,205z"/>
<path fill-rule="evenodd" clip-rule="evenodd" fill="#C9B27B" d="M135.906,206c11.099-0.399,17.536,2.356,18,13
	c-3.333,2.666-6.667,5.334-10,8c-13.317-0.004-12.635-4.693-18-12c0.333-1.334,0.667-2.668,1-4
	C129.905,209.334,132.907,207.667,135.906,206z"/>
<path fill-rule="evenodd" clip-rule="evenodd" fill="#6F5243" d="M332.906,208c6,1.333,7,2.667,13,4c-0.614,7.299,2.088,14.195-1,19
	c-1.666,0.334-3.334,0.666-5,1c-4.666-4.666-9.334-9.334-14-14C328.239,214.667,330.573,211.333,332.906,208z"/>
<path fill-rule="evenodd" clip-rule="evenodd" fill="#C9B27B" d="M194.906,211.001c2.333,0,4.667,0,7,0c4.333,6,8.667,12,13,18
	c0,0.666,0,1.334,0,2c-4.168,3.455-8.479,10.1-14,9c-2,0.334-4,0.666-6,1c-4-2.666-8-5.334-12-8
	C184.689,225.138,189.26,215.454,194.906,211.001z"/>
<path fill-rule="evenodd" clip-rule="evenodd" fill="#6F5243" d="M61.906,213.001c2,0,4,0,6,0c0.667,3.332,1.333,6.666,2,10
	c-3.321,6.4-6.695,10.295-17,10c-2.333-0.666-4.667-1.334-7-2c0-1.334,0-2.668,0-4C52.022,220.095,53.279,218.007,61.906,213.001z"
	/>
<path fill-rule="evenodd" clip-rule="evenodd" fill="#C9B27B" d="M236.906,213.001c5.414,1.564,9.845,4.158,13,8
	c-3,7.666-6,15.334-9,23c-7-4.666-14-9.334-21-14c0-1,0-2,0-3C225.572,222.335,231.24,217.667,236.906,213.001z"/>
<path fill-rule="evenodd" clip-rule="evenodd" fill="#6F5243" d="M306.906,214.001c3.333,1.666,6.667,3.334,10,5
	c-2.203,11.891-7.713,13.852-19,17c-0.334-1-0.666-2-1-3c-1.333-4.666-7.667-9.334-9-14
	C294.052,218.548,303.316,216.927,306.906,214.001z"/>
<path fill-rule="evenodd" clip-rule="evenodd" fill="#C9B27B" d="M121.906,217.001c2,3.332,4,6.666,6,10
	c-1.37,10.377-5.773,14.439-17,15c0-0.666,0-1.334,0-2c-2.642-4.57-3.837-8.891-4-16
	C111.905,221.667,116.907,219.333,121.906,217.001z"/>
<path fill-rule="evenodd" clip-rule="evenodd" fill="#C9B27B" d="M276.906,222.001c3,0.334,6,0.666,9,1
	c1.333,6.666,5.667,9.334,7,16c-2.666,2.332-5.334,4.666-8,7c-3.666-1.334-7.334-2.668-11-4c-1.666-6.332-3.334-12.668-5-19
	c1-0.334,2-0.666,3-1C274.032,222.001,276.504,222.178,276.906,222.001z"/>
<path fill-rule="evenodd" clip-rule="evenodd" fill="#C9B27B" d="M256.906,220.001c2,0.666,4,1.334,6,2
	c4.395,3.758,6.627,13.506,7,21c-1,0.666-2,1.334-3,2c-6.301,4.166-13.885,5.758-22,3c0-0.334,0-0.666,0-1
	C247.054,236.8,250.76,226.36,256.906,220.001z"/>
<path fill-rule="evenodd" clip-rule="evenodd" fill="#C9B27B" d="M151.906,251.001c-1-7.332-2-14.668-3-22
	c2.999-2.666,6.001-5.334,9-8c23.99,7.467,12.997,18.584,0,30C155.906,251.001,153.906,251.001,151.906,251.001z"/>
<path fill-rule="evenodd" clip-rule="evenodd" fill="#6F5243" d="M21.906,222.001c7.706,1.391,14.297,6.641,16,14
	c-3.079,8.305-6.079,12.344-18,12c-3.395-6.41-8.118-14.432-5-22c0.667-1,1.333-2,2-3C18.573,222.667,20.239,222.335,21.906,222.001
	z"/>
<path fill-rule="evenodd" clip-rule="evenodd" fill="#6F5243" d="M320.906,222.001c7.465,3.152,13.572,8.723,18,15
	c-2.395,8.605-4.019,12.072-13,14C317.74,239.235,315.748,236.562,320.906,222.001z"/>
<path fill-rule="evenodd" clip-rule="evenodd" fill="#C9B27B" d="M99.906,223.001c3.556,3.289,6.099,16.768,5,21
	c-5.666,2-11.334,4-17,6c-1.333-6.332-2.667-12.668-4-19c1-1,2-2,3-3C91.175,227.907,96.113,226.257,99.906,223.001z"/>
<path fill-rule="evenodd" clip-rule="evenodd" fill="#C9B27B" d="M72.906,226.001c7.474,4.799,10.433,15.682,11,27
	c-1,0.666-2,1.334-3,2c-5.629-1.262-9.903-2.199-15-6c-1-4-2-8-3-12C66.239,233.335,69.573,229.667,72.906,226.001z"/>
<path fill-rule="evenodd" clip-rule="evenodd" fill="#C9B27B" d="M130.906,230.001c4.726,0.025,10.569,0.529,13,3
	c1.333,6.332,2.667,12.668,4,19c-1.667,1-3.333,2-5,3c-0.667-0.666-1.333-1.334-2-2c-5.925-2.254-10.535-6.264-14-11
	C128.239,238.001,129.573,234.001,130.906,230.001z"/>
<path fill-rule="evenodd" clip-rule="evenodd" fill="#6F5243" d="M42.906,234.001c5.666,1.332,11.334,2.666,17,4
	c0.333,4.666,0.667,9.334,1,14c-0.667,0-1.333,0-2,0c-2,0.666-4,1.334-6,2c-4.666-3-9.334-6-14-9
	C40.239,241.335,41.573,237.667,42.906,234.001z"/>
<path fill-rule="evenodd" clip-rule="evenodd" fill="#C9B27B" d="M216.906,234.001c9.403,1.393,19.252,10.541,24,17
	c-1.333,3-2.667,6-4,9c-6,2.666-12,5.334-18,8c-4-7.666-8-15.334-12-23C210.239,241.335,213.573,237.667,216.906,234.001z"/>
<path fill-rule="evenodd" clip-rule="evenodd" fill="#6F5243" d="M178.906,236.001c4,2.666,8,5.334,12,8c-2,6-4,12-6,18
	c-3,0.334-6,0.666-9,1c-5.93-2.912-9.817-6.359-13-12C168.239,246.001,173.573,241.001,178.906,236.001z"/>
<path fill-rule="evenodd" clip-rule="evenodd" fill="#6F5243" d="M309.906,238.001c4,4.666,8,9.334,12,14c0,1,0,2,0,3
	c-1,0.666-2,1.334-3,2c-4.333,1-8.667,2-13,3c-4.333-4.666-8.667-9.334-13-14c0.666-0.666,1.334-1.334,2-2
	c0.666-1.334,1.334-2.668,2-4C301.239,239.335,305.573,238.667,309.906,238.001z"/>
<path fill-rule="evenodd" clip-rule="evenodd" fill="#C9B27B" d="M122.906,244.001c5.999,5.332,12.001,10.666,18,16
	c-0.333,1-0.667,2-1,3c-6.13,2.596-17.295,6.002-21,3c-2.999-6.332-6.001-12.668-9-19
	C114.239,246.001,118.573,245.001,122.906,244.001z"/>
<path fill-rule="evenodd" clip-rule="evenodd" fill="#6F5243" d="M194.906,245.001c2.333,0,4.667,0,7,0
	c4.666,8.332,9.334,16.668,14,25c-0.334,1-0.666,2-1,3c-6.861,2.666-13.085,3.877-19,3c-2.557-5.928-5.977-8.236-7-16
	C190.906,255.001,192.906,250.001,194.906,245.001z"/>
<path fill-rule="evenodd" clip-rule="evenodd" fill="#C9B27B" d="M272.906,247.001c2.333,0.666,4.667,1.334,7,2
	c0.334,0.666,0.666,1.334,1,2c-1.666,9.666-3.334,19.334-5,29c-0.666,0.334-1.334,0.666-2,1c-5-8.666-10-17.334-15-26
	c0.334-0.666,0.666-1.334,1-2C264.239,251.001,268.573,249.001,272.906,247.001z"/>
<path fill-rule="evenodd" clip-rule="evenodd" fill="#6F5243" d="M33.906,248.001c7.277,1.365,11.407,5.021,15,10
	c-0.751,3.85-4.021,14.959-7,13c-4.44,1.416-6.659,1.598-9-2C28.88,261.478,30.156,253.19,33.906,248.001z"/>
<path fill-rule="evenodd" clip-rule="evenodd" fill="#C9B27B" d="M101.906,248.001c1,0,2,0,3,0c4.444,4.541,7.962,15.631,9,23
	c-0.667,0-1.333,0-2,0c-5.333,1.332-10.667,2.666-16,4c-2.999-6.666-6.001-13.334-9-20
	C91.905,252.667,96.907,250.333,101.906,248.001z"/>
<path fill-rule="evenodd" clip-rule="evenodd" fill="#C9B27B" d="M285.906,250.001c9.894,1.635,22.346,12.895,14,24c-6,2-12,4-18,6
	c-0.666-0.666-1.334-1.334-2-2C281.906,268.669,283.906,259.333,285.906,250.001z"/>
<path fill-rule="evenodd" clip-rule="evenodd" fill="#6F5243" d="M336.906,251.001c12.391,2.365,8.184,12.207,2,23
	c-7.355,0.721-3.402,2.555-9,0c-2.052-5.578-6.542-11.906-3-17C330.239,255.001,333.573,253.001,336.906,251.001z"/>
<path fill-rule="evenodd" clip-rule="evenodd" fill="#6F5243" d="M28.906,276.001c-7.333-1.334-14.667-2.668-22-4
	c-0.333-1-0.667-2-1-3c1.333-3.666,2.667-7.334,4-11c5.56-2.48,8.375-5.969,16-4C26.906,261.333,27.906,268.669,28.906,276.001z"/>
<path fill-rule="evenodd" clip-rule="evenodd" fill="#C9B27B" d="M244.906,253.001c3.666,1,7.334,2,11,3c4.333,8.998,8.667,18,13,27
	c-5.488-1.166-14.357,1.311-18-2c-5.537-3.957-6.914-12.633-11-18C241.572,259.667,243.24,256.333,244.906,253.001z"/>
<path fill-rule="evenodd" clip-rule="evenodd" fill="#C9B27B" d="M156.906,254.001c4.333,4.332,8.667,8.666,13,13
	c-2.666,5.666-5.334,11.334-8,17c-1-0.334-2-0.666-3-1c-9.573-7.197-16.349-8.92-15-22c2-2,4-4,6-6
	C152.239,254.667,154.573,254.335,156.906,254.001z"/>
<path fill-rule="evenodd" clip-rule="evenodd" fill="#C9B27B" d="M63.906,255.001c2.999,1.332,6.001,2.666,9,4
	c-1.942,9.373-6.196,17.408-12,23c-3.999-3.666-8.001-7.334-12-11C51.905,259.438,54.394,259.952,63.906,255.001z"/>
<path fill-rule="evenodd" clip-rule="evenodd" fill="#C9B27B" d="M81.906,258.001c4.871,3.25,12.047,18.758,10,22
	c-1.466,6.266-1.759,8.055-10,8c-4.722-1.369-11.7-2.115-15-5c3.917-7.627,7.622-13.014,10-23
	C78.573,259.335,80.239,258.667,81.906,258.001z"/>
<path fill-rule="evenodd" clip-rule="evenodd" fill="#6F5243" d="M311.906,263.001c3,0,6,0,9,0c2,5.332,4,10.666,6,16
	c-0.666,0-1.334,0-2,0c-5,1-10,2-15,3c-2-2-4-4-6-6C306.164,268.985,306.232,266.659,311.906,263.001z"/>
<path fill-rule="evenodd" clip-rule="evenodd" fill="#C9B27B" d="M234.906,264.001c4,7,8,14,12,21c-3.666,2.332-7.334,4.666-11,7
	c-5.51-7.965-14.089-12-14-21C226.239,268.667,230.573,266.333,234.906,264.001z"/>
<path fill-rule="evenodd" clip-rule="evenodd" fill="#6F5243" d="M175.906,267.001c6.902-0.186,9.329,0.703,13,3
	c1.333,2.666,2.667,5.334,4,8c-2.333,3-4.667,6-7,9c-6-1-12-2-18-3C169.209,277.642,172.678,271.585,175.906,267.001z"/>
<path fill-rule="evenodd" clip-rule="evenodd" fill="#C9B27B" d="M134.906,269.001c1.667,0,3.333,0,5,0c1.333,3,2.667,6,4,9
	c-3.667,5-7.333,10-11,15c-4.171-2.637-5.603-3.883-13-4c-1.084-5.828-2.62-13.922,2-17
	C126.239,271.001,130.573,270.001,134.906,269.001z"/>
<path fill-rule="evenodd" clip-rule="evenodd" fill="#6F5243" d="M44.906,275.001c3.333,3.332,6.667,6.666,10,10
	c-8.62,3.271-11.756,11.246-19,16c-1-0.666-2-1.334-3-2c-0.694-7.803-2.45-14.234-1-22
	C36.239,276.335,40.573,275.667,44.906,275.001z"/>
<path fill-rule="evenodd" clip-rule="evenodd" fill="#C9B27B" d="M114.906,276.001c0,5,0,10,0,15c-1.333,2-2.667,4-4,6
	c-5.999-2.334-12.001-4.668-18-7C94.808,279.876,103.728,276.384,114.906,276.001z"/>
<path fill-rule="evenodd" clip-rule="evenodd" fill="#6F5243" d="M27.906,297.001c-7.666-0.666-12.334-1.334-20-2
	c0-0.334,0-0.666,0-1c1.667-5.334,0.333-10.668,2-16c2.333,0,4.667,0,7,0c3.333,0.666,6.667,1.334,10,2
	C27.239,285.667,27.573,291.335,27.906,297.001z"/>
<path fill-rule="evenodd" clip-rule="evenodd" fill="#6F5243" d="M212.906,303.001c-0.666-8-1.334-16.002-2-24c0.666,0,1.334,0,2,0
	c1.333-0.334,2.667-0.666,4-1c6,6,12,12,18,18c-0.334,2,7.334,8,7,10C234.906,306.335,219.906,302.667,212.906,303.001z"/>
<path fill-rule="evenodd" clip-rule="evenodd" fill="#6F5243" d="M336.906,278.001c2,0,4,0,6,0c3.333,4,6.667,8,10,12
	c-3.333,3.666,0.333,7.334-3,11c-5-3-10-6-15-9c-0.666-3-1.334-6-2-9C336.572,281.335,333.24,279.667,336.906,278.001z"/>
<path fill-rule="evenodd" clip-rule="evenodd" fill="#C9B27B" d="M297.906,279.001c3.666,2.666,7.334,5.334,11,8
	c-1.333,4.666-2.667,9.334-4,14c-2.666-0.334-5.334-0.666-8-1c-1.568-8.203-5.853-11.621-10-17c0-0.334,0-0.666,0-1
	C290.572,281.001,294.24,280.001,297.906,279.001z"/>
<path fill-rule="evenodd" clip-rule="evenodd" fill="#6F5243" d="M196.906,281.001c3.333,0,6.667,0,10,0
	c1.775,10.129,2.781,19.531-2,27c-0.334,0-0.666,0-1,0c-5-1-10-2-15-3c0-5,0-10,0-15c0.334-0.334,0.666-0.666,1-1
	C192.239,286.335,194.573,283.667,196.906,281.001z"/>
<path fill-rule="evenodd" clip-rule="evenodd" fill="#C9B27B" d="M145.906,282.001c5.868,0.625,9.854,2.695,13,6
	c0.24,7.158-0.626,10.195-3,14c-5.666,2.666-11.334,5.334-17,8c-0.333-0.666-0.667-1.334-1-2c-0.667-4.334-1.333-8.668-2-13
	C139.239,290.667,142.573,286.333,145.906,282.001z"/>
<path fill-rule="evenodd" clip-rule="evenodd" fill="#6F5243" d="M324.906,283.001c1.333,0,2.667,0,4,0c0,2.332,0,4.666,0,7
	c0.742,3.498,0.949,3.375-1,6c-3.333,4-6.667,8-10,12c-3-1.666-6-3.334-9-5c1.333-5.666,2.667-11.334,4-17
	C316.906,285.001,320.906,284.001,324.906,283.001z"/>
<path fill-rule="evenodd" clip-rule="evenodd" fill="#C9B27B" d="M276.906,284.001c5.766,0.609,5.629,1.625,9,4
	c2.666,5.332,5.334,10.666,8,16c-5.986,5.387-5.971,9.934-18,10c-2-1.666-4-3.334-6-5c1-7.666,2-15.334,3-23
	C274.239,285.335,275.573,284.667,276.906,284.001z"/>
<path fill-rule="evenodd" clip-rule="evenodd" fill="#C9B27B" d="M57.906,286.001c2.333,0.666,4.667,1.334,7,2
	c0.724,12.404,2.048,20.607-5,27c-6.666-1.666-13.334-3.334-20-5c-0.333-1-0.667-2-1-3C41.81,298.677,52.626,292.726,57.906,286.001
	z"/>
<path fill-rule="evenodd" clip-rule="evenodd" fill="#6F5243" d="M162.906,287.001c7.666,1.332,15.334,2.666,23,4
	c-0.31,5.49-1.126,13.139-3,17c-1.666,1-3.334,2-5,3c-1.333,0-2.667,0-4,0c-4-3.666-8-7.334-12-11
	C162.24,295.667,162.572,291.333,162.906,287.001z"/>
<path fill-rule="evenodd" clip-rule="evenodd" fill="#C9B27B" d="M266.906,287.001c-0.334,7-0.666,14-1,21
	c-12.148,3.551-9.844-1.16-21-6c-3.172-2.437-4.541-3.885-5-6C248.443,289.007,251.604,286.819,266.906,287.001z"/>
<path fill-rule="evenodd" clip-rule="evenodd" fill="#C9B27B" d="M69.906,291.001c6.666,0.334,13.334,0.666,20,1
	c-1.667,6-3.333,12-5,18c-4.999-0.666-10.001-1.334-15-2C69.906,302.335,69.906,296.667,69.906,291.001z"/>
<path fill-rule="evenodd" clip-rule="evenodd" fill="#C9B27B" d="M118.906,293.001c3.999,1,8.001,2,12,3
	c1.333,5.332,2.667,10.666,4,16c-6.666,0-13.334,0-20,0c-0.333-1-0.667-2-1-3C111.556,300.759,115.645,298.167,118.906,293.001z"/>
<path fill-rule="evenodd" clip-rule="evenodd" fill="#C9B27B" d="M92.906,294.001c5.333,2.332,10.667,4.666,16,7
	c-0.667,5.666-1.333,11.334-2,17c-4.454,0.672-7.84,0.4-14-1c-1-1.666-2-3.334-3-5C90.906,306.001,91.906,300.001,92.906,294.001z"
	/>
<path fill-rule="evenodd" clip-rule="evenodd" fill="#6F5243" d="M333.906,297.001c4.666,2.666,9.334,5.334,14,8
	c-0.334,4.332-0.666,8.666-1,13c-1,0.334-2,0.666-3,1c-7-2.666-14-5.334-21-8C326.572,306.335,330.24,301.667,333.906,297.001z"/>
<path fill-rule="evenodd" clip-rule="evenodd" fill="#6F5243" d="M10.906,299.001c14.38,1.348,20.062,2.045,26,12
	c0,0.334,0,0.666,0,1c-2.999,2.666-6.001,2.334-9,5c-2.333,0.666-4.667,1.334-7,2c-7.245-3.904-15.72-8.113-17-18
	c0.667,0,1.333,0,2,0C8.573,300.335,8.239,299.667,10.906,299.001z"/>
<path fill-rule="evenodd" clip-rule="evenodd" fill="#C9B27B" d="M152.906,321.001c-2.753-0.741-10.697-2.649-13-5
	c0.667-1,1.333-2,2-3c5.999-2.666,12.001-5.334,18-8c3.333,2.666,6.667,5.334,10,8c0,0.666,0,1.334,0,2"/>
<path fill-rule="evenodd" clip-rule="evenodd" fill="#6F5243" d="M299.906,305.001c2.333,0,4.667,0,7,0c2.666,2,5.334,4,8,6
	c-2.666,5.332-5.334,4.666-8,10c-2.333,0-4.667,0-7,0c-4.567-2-7-3.223-12-6C290.906,312.335,296.906,307.667,299.906,305.001z"/>
</svg>
